<svg width="135" height="156" viewBox="0 0 135 156" fill="none" xmlns="http://www.w3.org/2000/svg">
<g opacity="0.4" clip-path="url(#clip0_31_550)">
<path d="M117.755 20.2561C117.712 20.4435 117.575 20.6096 117.417 20.8693C117.396 20.963 117.281 21.0353 117.259 21.129C117.238 21.2227 117.101 21.3888 117.08 21.4825C117.058 21.5762 116.944 21.6485 116.922 21.7422C116.901 21.836 116.764 22.002 116.743 22.0957C116.721 22.1894 116.606 22.2617 116.585 22.3554C116.563 22.4492 116.448 22.5214 116.405 22.7089C116.291 22.7812 116.248 22.9686 116.133 23.0409C116.018 23.1132 115.996 23.2069 115.881 23.2792C115.745 23.4453 115.63 23.5175 115.587 23.705C115.566 23.7987 115.451 23.871 115.429 23.9647C115.271 24.2245 115.042 24.3691 114.79 24.6074C114.79 24.6074 114.79 24.6074 114.769 24.7011C114.517 24.9394 114.381 25.1054 114.151 25.25C114.036 25.3223 114.036 25.3223 113.921 25.3946C113.67 25.6329 113.326 25.8498 113.074 26.0881L112.959 26.1604C112.73 26.305 112.615 26.3773 112.385 26.5219C112.27 26.5942 112.27 26.5942 112.155 26.6665C112.04 26.7388 111.81 26.8834 111.696 26.9557C111.581 27.028 111.581 27.028 111.466 27.1003C111.121 27.3172 110.776 27.5341 110.36 27.6358L110.245 27.7081C109.807 27.9036 109.484 28.0268 109.046 28.2222C108.514 28.3963 107.983 28.5703 107.451 28.7444C107.128 28.8675 106.92 28.9184 106.597 29.0416C106.503 29.0202 106.388 29.0925 106.388 29.0925C106.18 29.1433 105.95 29.2879 105.649 29.3174C105.555 29.296 105.534 29.3897 105.44 29.3683C105.117 29.4914 104.887 29.636 104.564 29.7592C104.471 29.7378 104.449 29.8315 104.356 29.8101C104.126 29.9547 103.918 30.0055 103.688 30.1501L103.573 30.2224C103.573 30.2224 103.552 30.3161 103.458 30.2947C103.228 30.4393 103.02 30.4902 102.884 30.6562L102.769 30.7285L102.654 30.8008C102.539 30.8731 102.424 30.9454 102.309 31.0177C102.288 31.1114 102.194 31.09 102.173 31.1837C102.058 31.256 102.036 31.3497 101.943 31.3283C101.922 31.422 101.828 31.4006 101.807 31.4943L101.692 31.5666C101.692 31.5666 101.692 31.5666 101.67 31.6603C101.555 31.7326 101.534 31.8264 101.397 31.9924C101.283 32.0647 101.24 32.2521 101.125 32.3244C101.125 32.3244 101.125 32.3244 101.103 32.4181C101.082 32.5119 100.988 32.4904 100.967 32.5842C100.945 32.6779 100.83 32.7502 100.83 32.7502L100.809 32.8439C100.787 32.9376 100.673 33.0099 100.651 33.1036C100.63 33.1974 100.63 33.1974 100.515 33.2696C100.515 33.2696 100.515 33.2696 100.493 33.3634C100.357 33.5294 100.314 33.7168 100.156 33.9766C100.156 33.9766 100.156 33.9766 100.134 34.0703C99.9765 34.33 99.7971 34.6835 99.7326 34.9646C99.5532 35.3181 99.3953 35.5778 99.3093 35.9527C99.2663 36.1402 99.13 36.3062 99.1085 36.3999C99.087 36.4936 99.0655 36.5874 98.9506 36.6596C98.7067 37.2943 98.3479 38.0012 98.104 38.6358C98.0825 38.7295 98.061 38.8232 97.9461 38.8955C97.6808 39.6239 97.322 40.3308 97.0566 41.0591C97.0351 41.1529 97.0136 41.2466 96.9921 41.3403C96.9706 41.434 96.9491 41.5278 96.9276 41.6215C96.6622 42.3498 96.3753 43.1719 96.11 43.9002C96.0885 43.9939 96.0885 43.9939 96.067 44.0877C95.8016 44.816 95.5362 45.5443 95.3642 46.2941C95.3427 46.3878 95.3212 46.4815 95.2997 46.5753C95.2782 46.669 95.2567 46.7627 95.2567 46.7627C95.0128 47.3973 94.8623 48.0534 94.6185 48.688C94.468 49.344 94.2456 49.8849 94.0951 50.541C93.9661 51.1033 93.7437 51.6442 93.6362 52.1128L93.6147 52.2065C93.4857 52.7689 93.2849 53.216 93.1559 53.7784C93.1344 53.8721 93.1344 53.8721 93.1129 53.9658C93.0484 54.247 92.869 54.6004 92.8045 54.8816C92.783 54.9753 92.783 54.9753 92.7615 55.069C92.697 55.3502 92.5391 55.6099 92.4746 55.8911C92.4531 55.9848 92.4316 56.0785 92.4316 56.0785C92.2522 56.432 92.1662 56.8069 91.9654 57.2541C91.9439 57.3478 91.9224 57.4415 91.8075 57.5138C91.6066 57.961 91.4057 58.4081 91.1114 58.8339C91.0684 59.0213 90.9535 59.0936 90.8171 59.2597C90.7956 59.3534 90.6807 59.4257 90.6592 59.5194C90.6377 59.6131 90.6377 59.6131 90.5229 59.6854C90.5014 59.7791 90.3865 59.8514 90.365 59.9452C90.3435 60.0389 90.3435 60.0389 90.2286 60.1112L90.2071 60.2049C90.0707 60.3709 89.9128 60.6306 89.7764 60.7967C89.7549 60.8904 89.7549 60.8904 89.64 60.9627C89.4821 61.2224 89.3457 61.3884 89.0944 61.6268C89.073 61.7205 88.9796 61.6991 88.9581 61.7928C88.8217 61.9588 88.6853 62.1248 88.5489 62.2908C88.5274 62.3845 88.4125 62.4568 88.4125 62.4568C88.2761 62.6229 88.1397 62.7889 87.9099 62.9335C87.8884 63.0272 87.795 63.0058 87.7735 63.0995C87.5437 63.2441 87.3859 63.5038 87.1561 63.6484C87.1346 63.7421 87.0412 63.7207 87.0197 63.8144C86.7899 63.959 86.6535 64.125 86.4237 64.2696C86.3088 64.3419 86.2873 64.4357 86.1939 64.4142C86.079 64.4865 86.0575 64.5803 85.9641 64.5588C85.8493 64.6311 85.7344 64.7034 85.6195 64.7757C85.5046 64.848 85.4112 64.8266 85.3897 64.9203C85.2748 64.9926 85.1599 65.0649 85.0665 65.0435C84.8367 65.1881 84.7218 65.2604 84.492 65.405C84.3772 65.4773 84.2838 65.4558 84.2623 65.5496C83.9391 65.6727 83.7093 65.8173 83.3861 65.9405C83.0629 66.0637 82.7398 66.1868 82.3232 66.2886C82.3232 66.2886 82.2298 66.2672 82.2083 66.3609C81.9066 66.3903 81.6768 66.5349 81.3751 66.5644C81.2817 66.543 81.1669 66.6153 81.0735 66.5938C80.8652 66.6447 80.7718 66.6233 80.5635 66.6742C80.2618 66.7036 80.0535 66.7545 79.7518 66.7839C79.6585 66.7625 79.4502 66.8134 79.3568 66.792C78.8683 66.7786 78.3583 66.8589 77.9633 66.8669C77.9633 66.8669 77.9633 66.8669 77.8699 66.8455C77.3814 66.8321 76.8929 66.8187 76.4045 66.8053C76.3111 66.7839 76.1028 66.8348 76.0094 66.8133C75.5209 66.7999 75.0324 66.7865 74.544 66.7731C74.0555 66.7597 73.4736 66.7249 72.9852 66.7115C72.4033 66.6767 71.8214 66.6419 71.3115 66.7222C71.3115 66.7222 71.3115 66.7222 71.2181 66.7008C70.6362 66.666 70.0329 66.7249 69.4295 66.7838C69.4295 66.7838 69.4295 66.7838 69.3361 66.7623C68.8261 66.8427 68.3377 66.8293 67.8277 66.9096C67.8277 66.9096 67.8277 66.9096 67.7343 66.8882L67.6409 66.8667C67.3392 66.8962 67.1309 66.9471 66.8293 66.9765L66.7359 66.9551C66.5276 67.006 66.2259 67.0354 66.0176 67.0863L65.9242 67.0649C65.7159 67.1157 65.3928 67.2389 65.1845 67.2898L65.0696 67.3621C64.8613 67.4129 64.653 67.4638 64.4232 67.6084C64.4232 67.6084 64.3298 67.587 64.3083 67.6807C64.1 67.7316 63.8703 67.8762 63.6405 68.0208L63.5256 68.0931C63.3173 68.1439 63.0875 68.2885 62.9511 68.4546C62.9511 68.4546 62.9511 68.4546 62.8577 68.4331C62.6494 68.484 62.513 68.65 62.3981 68.7223L62.2833 68.7946C62.1684 68.8669 62.0535 68.9392 61.9171 69.1052C61.9171 69.1052 61.9171 69.1052 61.8022 69.1775C61.5724 69.3221 61.436 69.4881 61.2062 69.6327C61.2062 69.6327 61.2062 69.6327 61.0913 69.705C60.9549 69.871 60.7252 70.0156 60.5888 70.1817C60.5888 70.1817 60.5673 70.2754 60.4739 70.254C60.3375 70.42 60.2226 70.4923 60.0862 70.6583C60.0862 70.6583 60.0647 70.752 59.9713 70.7306C59.9713 70.7306 59.9498 70.8243 59.8564 70.8029C59.7415 70.8752 59.6051 71.0412 59.5621 71.2286L59.4472 71.3009C59.4472 71.3009 59.4472 71.3009 59.4257 71.3947C59.2894 71.5607 59.1315 71.8204 58.9951 71.9864C58.8587 72.1524 58.7008 72.4122 58.5644 72.5782C58.5644 72.5782 58.5644 72.5782 58.5429 72.6719C58.5429 72.6719 58.5214 72.7657 58.428 72.7442C58.2916 72.9102 58.2486 73.0977 58.1122 73.2637L58.0907 73.3574L58.0692 73.4511C57.9113 73.7109 57.7535 73.9706 57.5956 74.2304C57.4592 74.3964 57.3947 74.6775 57.2583 74.8436C56.268 76.5894 55.371 78.3567 54.4526 80.2177C54.1153 80.8309 53.7565 81.5379 53.4192 82.151C53.3977 82.2448 53.3977 82.2448 53.3763 82.3385C53.039 82.9517 52.7017 83.5649 52.3644 84.1781C52.3429 84.2718 52.3214 84.3655 52.228 84.3441C51.8907 84.9573 51.5535 85.5705 51.2162 86.1837C51.1947 86.2774 51.1732 86.3711 51.0583 86.4434C50.721 87.0566 50.3838 87.6698 50.0465 88.283C50.025 88.3767 50.025 88.3767 49.9101 88.449C49.5943 88.9685 49.2785 89.488 48.9412 90.1012C48.9198 90.1949 48.8049 90.2672 48.7834 90.3609C48.4676 90.8804 48.1518 91.3999 47.836 91.9194C47.8145 92.0131 47.6996 92.0854 47.6781 92.1791C47.3839 92.6049 47.2045 92.9583 46.9102 93.3841C46.9102 93.3841 46.8887 93.4778 46.7953 93.4564C46.5225 93.7884 46.3431 94.1419 46.0703 94.4739C45.9555 94.5462 45.9125 94.7336 45.7976 94.8059C45.6397 95.0657 45.5033 95.2317 45.252 95.47C45.1371 95.5423 45.0941 95.7297 44.9792 95.802C44.7064 96.1341 44.5485 96.3938 44.2758 96.7259C44.2758 96.7259 44.2758 96.7258 44.2543 96.8196C43.9815 97.1516 43.7302 97.3899 43.5508 97.7434C43.4359 97.8157 43.4144 97.9094 43.2995 97.9817C43.1631 98.1477 42.9119 98.386 42.7755 98.552C42.6606 98.6243 42.5242 98.7904 42.4093 98.8627C42.2729 99.0287 42.1365 99.1947 42.0001 99.3607C41.8852 99.433 41.7488 99.599 41.6339 99.6713C41.4975 99.8373 41.3612 100.003 41.2463 100.076C41.1314 100.148 40.995 100.314 40.8801 100.386C40.7437 100.552 40.6288 100.625 40.4924 100.791C40.3775 100.863 40.2411 101.029 40.1262 101.101C39.9898 101.267 39.8749 101.34 39.6452 101.484C39.5303 101.556 39.3939 101.722 39.279 101.795C39.1426 101.961 38.9128 102.105 38.7764 102.271C38.6615 102.344 38.5251 102.51 38.4102 102.582C38.1805 102.727 38.0441 102.893 37.8143 103.037C37.6994 103.109 37.5845 103.182 37.4696 103.254C37.1034 103.565 36.6654 103.76 36.2992 104.071L36.1843 104.143C35.8396 104.36 35.4949 104.577 35.1503 104.794C35.0354 104.866 34.9205 104.938 34.8056 105.011C34.5758 105.155 34.346 105.3 34.0228 105.423C33.9079 105.495 33.793 105.568 33.6782 105.64C33.3335 105.857 32.8954 106.052 32.5722 106.175C32.1342 106.371 31.7176 106.473 31.1861 106.647C31.0712 106.719 30.8629 106.77 30.7695 106.748C30.4464 106.872 30.1447 106.901 29.8215 107.024C29.7066 107.097 29.5198 107.054 29.4049 107.126C29.1032 107.155 28.7801 107.279 28.4784 107.308C28.3635 107.38 28.1767 107.337 28.0618 107.41C27.6452 107.512 27.2502 107.52 26.7402 107.6C26.6468 107.578 26.5319 107.651 26.5319 107.651C26.2302 107.68 25.9285 107.71 25.6269 107.739C25.3252 107.769 24.9301 107.777 24.6284 107.806C24.4201 107.857 24.2334 107.814 23.9317 107.843C23.5366 107.852 23.2349 107.881 22.8613 107.795C22.6746 107.752 22.4663 107.803 22.2795 107.76C21.791 107.747 21.3025 107.734 20.929 107.648C20.8356 107.627 20.7422 107.605 20.6488 107.584C20.0669 107.549 19.4132 107.399 18.8313 107.364C18.4577 107.278 18.0626 107.286 17.6891 107.201C17.5957 107.179 17.5957 107.179 17.5023 107.158C17.0353 107.051 16.5683 106.944 16.0799 106.93C15.8931 106.887 15.6129 106.823 15.4261 106.78C15.1459 106.716 14.8657 106.652 14.5856 106.587C14.3988 106.545 14.1186 106.48 13.9318 106.438C13.6516 106.373 13.4648 106.33 13.1846 106.266C12.5309 106.116 11.8771 105.966 11.3383 105.744C11.2449 105.723 11.1515 105.701 11.0581 105.68C10.4977 105.551 10.0522 105.35 9.49188 105.222C9.2117 105.157 8.83812 105.072 8.57944 104.914L15.8352 132.425C16.022 132.468 16.3022 132.532 16.4675 132.669C16.5609 132.69 16.6543 132.712 16.7477 132.733C17.308 132.862 17.7535 133.062 18.3139 133.191C18.4073 133.212 18.5007 133.234 18.5941 133.255C19.2478 133.405 19.7867 133.627 20.4405 133.777C20.5338 133.799 20.5338 133.799 20.6272 133.82C20.814 133.863 21.0008 133.906 21.1876 133.949C21.3744 133.992 21.6546 134.056 21.8414 134.099C22.1215 134.163 22.4017 134.227 22.6819 134.292C22.8687 134.334 23.1489 134.399 23.3357 134.442C23.4291 134.463 23.4291 134.463 23.5225 134.484C23.896 134.57 24.363 134.677 24.7581 134.669C24.8515 134.691 24.8515 134.691 24.9449 134.712C25.3184 134.798 25.5986 134.862 25.9937 134.854C26.0871 134.875 26.0871 134.875 26.1805 134.897C26.8558 134.953 27.4161 135.082 27.998 135.116C28.0914 135.138 28.1848 135.159 28.2782 135.181C28.7666 135.194 29.2336 135.301 29.7221 135.315C29.8155 135.336 29.8155 135.336 29.9089 135.357C30.0023 135.379 30.2105 135.328 30.3039 135.349C30.699 135.341 30.9792 135.406 31.3743 135.398C31.4677 135.419 31.5611 135.44 31.6759 135.368C31.7693 135.39 31.8842 135.317 32.071 135.36C32.3727 135.331 32.7678 135.323 33.0695 135.293C33.1629 135.315 33.3711 135.264 33.4645 135.285C33.5794 135.213 33.7662 135.256 33.9745 135.205C34.0679 135.226 34.1828 135.154 34.1828 135.154C34.5779 135.146 34.901 135.023 35.2961 135.015C35.3895 135.036 35.411 134.942 35.5044 134.964C35.6193 134.892 35.8061 134.934 35.921 134.862C36.2227 134.833 36.5458 134.71 36.8475 134.68C36.9624 134.608 37.1492 134.651 37.2641 134.578C37.379 134.506 37.4724 134.527 37.5658 134.549C37.7741 134.498 37.9823 134.447 38.1906 134.396C38.3989 134.345 38.6072 134.294 38.7221 134.222C39.1602 134.027 39.6701 133.946 40.1082 133.751C40.5463 133.555 40.8695 133.432 41.2141 133.215C41.329 133.143 41.4439 133.071 41.5588 132.999C41.7886 132.854 42.1118 132.731 42.3416 132.586C42.435 132.608 42.4565 132.514 42.5499 132.535C42.6432 132.557 42.6647 132.463 42.7581 132.484C43.1028 132.268 43.4475 132.051 43.7922 131.834L43.9071 131.761C44.2732 131.451 44.7113 131.255 45.0775 130.945L45.1924 130.872C45.3073 130.8 45.3288 130.706 45.4222 130.728C45.652 130.583 45.7883 130.417 46.0181 130.273C46.133 130.2 46.2694 130.034 46.3843 129.962C46.5207 129.796 46.7505 129.651 46.8869 129.485C47.0018 129.413 47.0233 129.319 47.1167 129.341C47.1382 129.247 47.2316 129.269 47.253 129.175C47.3894 129.009 47.5043 128.936 47.7341 128.792C47.849 128.72 47.9854 128.554 48.1003 128.481C48.2367 128.315 48.3516 128.243 48.488 128.077C48.6029 128.005 48.6244 127.911 48.7393 127.839L48.8541 127.766C48.9905 127.6 49.1269 127.434 49.2418 127.362C49.3567 127.29 49.4931 127.124 49.608 127.051C49.7444 126.885 49.8808 126.719 50.0172 126.553C50.1321 126.481 50.1536 126.387 50.2685 126.315C50.2685 126.315 50.29 126.221 50.3833 126.243C50.5197 126.077 50.771 125.838 50.9074 125.672C51.0223 125.6 51.0438 125.506 51.1587 125.434C51.4315 125.102 51.6828 124.864 51.8621 124.51C51.8621 124.51 51.8621 124.51 51.8836 124.417C52.1564 124.084 52.4077 123.846 52.5871 123.493C52.702 123.42 52.745 123.233 52.8599 123.161C53.0178 122.901 53.1542 122.735 53.4054 122.497C53.4269 122.403 53.5203 122.424 53.5418 122.331C53.5633 122.237 53.6567 122.258 53.6782 122.165C53.951 121.833 54.1304 121.479 54.4032 121.147C54.4032 121.147 54.4247 121.053 54.5181 121.075C54.8124 120.649 55.0851 120.317 55.286 119.87C55.286 119.87 55.3075 119.776 55.4009 119.797C55.4224 119.704 55.4224 119.704 55.5373 119.631C55.8531 119.112 56.1689 118.593 56.4846 118.073C56.5061 117.979 56.621 117.907 56.6425 117.813C56.9583 117.294 57.2741 116.774 57.6114 116.161L57.6329 116.067L57.6544 115.974C57.9916 115.36 58.3289 114.747 58.6662 114.134C58.6877 114.04 58.7092 113.947 58.8241 113.874C59.1614 113.261 59.4986 112.648 59.8359 112.035C59.8574 111.941 59.8789 111.847 59.9723 111.869C60.3096 111.256 60.6469 110.642 61.0056 109.935C61.0271 109.842 61.0271 109.842 61.0486 109.748C61.4074 109.041 61.7447 108.428 62.082 107.815C63.0004 105.954 63.9907 104.208 64.8877 102.441C65.0241 102.274 65.0886 101.993 65.225 101.827C65.3828 101.568 65.5407 101.308 65.6986 101.048C65.7201 100.954 65.835 100.882 65.835 100.882C65.9714 100.716 66.0144 100.529 66.1508 100.363C66.1723 100.269 66.2872 100.197 66.2872 100.197C66.4236 100.031 66.5815 99.7708 66.7179 99.6048C66.8542 99.4388 67.0121 99.1791 67.1485 99.013C67.17 98.9193 67.2634 98.9407 67.2849 98.847C67.4213 98.681 67.5362 98.6087 67.5792 98.4213C67.6007 98.3275 67.6941 98.349 67.7156 98.2552C67.852 98.0892 67.9669 98.0169 68.1033 97.8509C68.1248 97.7572 68.2182 97.7786 68.2396 97.6849C68.376 97.5189 68.6058 97.3743 68.7422 97.2083L68.8571 97.136C69.0869 96.9914 69.2233 96.8254 69.4531 96.6808L69.568 96.6085C69.6829 96.5362 69.8192 96.3701 69.9341 96.2978L70.049 96.2256C70.1639 96.1533 70.3937 96.0087 70.5086 95.9364C70.5086 95.9364 70.5086 95.9364 70.6235 95.8641C70.8533 95.7195 71.0616 95.6686 71.198 95.5026L71.3128 95.4303C71.5426 95.2857 71.7509 95.2348 71.9807 95.0902C71.9807 95.0902 72.0741 95.1116 72.0956 95.0179C72.3039 94.967 72.5337 94.8225 72.742 94.7716L72.8568 94.6993C73.0651 94.6484 73.3883 94.5252 73.5966 94.4744C73.5966 94.4744 73.69 94.4958 73.7115 94.4021C73.9198 94.3512 74.2215 94.3217 74.4297 94.2709L74.5231 94.2923C74.8248 94.2628 75.0331 94.212 75.3348 94.1825C75.3348 94.1825 75.4282 94.2039 75.4497 94.1102C75.9597 94.0299 76.4696 93.9496 76.9581 93.963L77.0515 93.9844C77.6548 93.9255 78.2367 93.9603 78.8401 93.9014L78.9335 93.9228C79.5153 93.9577 80.0253 93.8773 80.6072 93.9122C81.0956 93.9256 81.6775 93.9604 82.166 93.9738C82.6544 93.9872 83.1429 94.0006 83.6314 94.014C83.7248 94.0354 83.933 93.9845 84.0264 94.0059C84.5149 94.0193 85.0034 94.0327 85.4918 94.0461C85.4918 94.0461 85.4918 94.0461 85.5852 94.0676C86.0737 94.0809 86.5837 94.0006 86.9788 93.9926C87.0721 94.014 87.0722 94.014 87.187 93.9417C87.2804 93.9632 87.3019 93.8694 87.3953 93.8909C87.697 93.8614 87.9987 93.8319 88.207 93.7811C88.3004 93.8025 88.4153 93.7302 88.5087 93.7516C88.602 93.7731 88.6236 93.6793 88.7169 93.7008C88.8103 93.7222 88.9252 93.6499 89.0186 93.6713C89.3203 93.6419 89.622 93.6124 89.8518 93.4678C89.8518 93.4678 89.9452 93.4892 89.9667 93.3955C90.2898 93.2723 90.5915 93.2429 90.9147 93.1197C91.2379 92.9966 91.5611 92.8734 91.7908 92.7288C91.9057 92.6565 91.9991 92.6779 92.0206 92.5842C92.2289 92.5333 92.4587 92.3887 92.5951 92.2227L92.71 92.1504L92.8249 92.0781C92.9398 92.0058 93.0332 92.0272 93.0547 91.9335C93.1696 91.8612 93.2844 91.7889 93.3993 91.7166C93.5142 91.6443 93.5357 91.5506 93.6291 91.572L93.744 91.4997L93.8589 91.4274C94.0887 91.2828 94.2251 91.1168 94.4549 90.9722L94.5698 90.8999C94.5698 90.8999 94.5698 90.8999 94.5913 90.8062C94.821 90.6616 94.9789 90.4019 95.2087 90.2573C95.2087 90.2573 95.2302 90.1636 95.3236 90.185C95.46 90.019 95.5964 89.853 95.8262 89.7084C95.8262 89.7084 95.8477 89.6146 95.9411 89.6361C95.9411 89.6361 95.9626 89.5423 96.056 89.5638C96.1924 89.3977 96.3287 89.2317 96.4651 89.0657C96.4651 89.0657 96.4866 88.972 96.58 88.9934C96.7379 88.7337 96.8743 88.5677 97.1256 88.3293C97.1256 88.3293 97.1256 88.3293 97.1471 88.2356L97.1686 88.1419C97.3265 87.8822 97.4629 87.7162 97.5993 87.5501C97.5993 87.5501 97.5993 87.5501 97.6208 87.4564C97.6423 87.3627 97.6423 87.3627 97.7572 87.2904C97.7787 87.1967 97.8935 87.1244 97.915 87.0306C97.9365 86.9369 97.9365 86.9369 98.0514 86.8646C98.0729 86.7709 98.0729 86.7709 98.1878 86.6986C98.1878 86.6986 98.1878 86.6986 98.2093 86.6049C98.3457 86.4389 98.3887 86.2514 98.5036 86.1791C98.5251 86.0854 98.6615 85.9194 98.683 85.8257C98.8624 85.4722 99.0203 85.2125 99.1063 84.8376L99.1278 84.7439L99.1493 84.6502C99.3287 84.2967 99.508 83.9432 99.6155 83.4746L99.637 83.3809L99.6585 83.2872C99.723 83.006 99.8809 82.7463 99.9454 82.4651C99.9669 82.3714 99.9669 82.3714 99.9884 82.2777C100.053 81.9965 100.232 81.6431 100.297 81.3619C100.297 81.3619 100.297 81.3619 100.318 81.2682L100.34 81.1745C100.469 80.6121 100.67 80.165 100.799 79.6026L100.82 79.5089C100.949 78.9466 101.15 78.4994 101.279 77.9371C101.43 77.281 101.652 76.7401 101.802 76.0841C101.953 75.4281 102.197 74.7934 102.441 74.1588C102.484 73.9714 102.527 73.7839 102.548 73.6902C102.814 72.9619 103.079 72.2335 103.251 71.4838C103.272 71.39 103.272 71.39 103.294 71.2963C103.559 70.568 103.846 69.7459 104.112 69.0176C104.155 68.8301 104.291 68.6641 104.312 68.5704C104.578 67.8421 104.843 67.1137 105.202 66.4068C105.223 66.3131 105.245 66.2194 105.36 66.1471C105.604 65.5124 105.962 64.8055 106.206 64.1709C106.364 63.9112 106.429 63.63 106.587 63.3703C106.766 63.0168 106.924 62.7571 107.01 62.3822C107.168 62.1224 107.347 61.769 107.412 61.4878C107.412 61.4878 107.412 61.4878 107.433 61.3941C107.57 61.2281 107.613 61.0406 107.77 60.7809C107.792 60.6872 107.907 60.6149 107.907 60.6149C107.928 60.5212 108.043 60.4489 108.065 60.3552C108.086 60.2614 108.201 60.1891 108.223 60.0954C108.244 60.0017 108.244 60.0017 108.359 59.9294C108.495 59.7634 108.517 59.6697 108.653 59.5036C108.768 59.4313 108.905 59.2653 108.926 59.1716L109.041 59.0993C109.156 59.027 109.292 58.861 109.407 58.7887C109.544 58.6227 109.773 58.4781 109.888 58.4058L110.003 58.3335L110.118 58.2612C110.348 58.1166 110.484 57.9506 110.692 57.8997C110.807 57.8274 110.807 57.8274 110.922 57.7551C111.152 57.6105 111.36 57.5596 111.59 57.415C111.684 57.4365 111.705 57.3428 111.798 57.3642C112.122 57.241 112.351 57.0964 112.675 56.9732C112.768 56.9947 112.789 56.9009 112.883 56.9224C113.091 56.8715 113.321 56.7269 113.623 56.6974C113.716 56.7189 113.831 56.6466 113.831 56.6466C114.154 56.5234 114.362 56.4725 114.686 56.3494C115.217 56.1753 115.842 56.0227 116.28 55.8272C116.718 55.6318 117.135 55.53 117.479 55.3131L117.594 55.2408C117.939 55.0239 118.355 54.9222 118.7 54.7053L118.815 54.633L118.93 54.5607C119.045 54.4884 119.275 54.3438 119.389 54.2715C119.504 54.1992 119.504 54.1992 119.619 54.1269C119.849 53.9823 119.964 53.91 120.194 53.7654L120.309 53.6931C120.653 53.4762 120.905 53.2379 121.156 52.9996L121.271 52.9273C121.271 52.9273 121.292 52.8336 121.386 52.855C121.615 52.7104 121.867 52.4721 122.003 52.3061C122.003 52.3061 122.003 52.3061 122.025 52.2124C122.254 52.0678 122.412 51.808 122.663 51.5697C122.663 51.5697 122.663 51.5697 122.685 51.476C122.706 51.3823 122.8 51.4037 122.821 51.31C122.958 51.144 123.073 51.0717 123.116 50.8842L123.137 50.7905C123.159 50.6968 123.274 50.6245 123.274 50.6245C123.388 50.5522 123.431 50.3647 123.546 50.2925C123.546 50.2925 123.568 50.1987 123.661 50.2202C123.683 50.1264 123.798 50.0541 123.798 50.0541C123.819 49.9604 123.934 49.8881 123.956 49.7944L123.977 49.7007C123.999 49.607 124.113 49.5347 124.135 49.4409C124.156 49.3472 124.271 49.2749 124.293 49.1812L124.314 49.0875C124.336 48.9938 124.451 48.9215 124.472 48.8277C124.494 48.734 124.609 48.6617 124.63 48.568C124.63 48.568 124.63 48.568 124.652 48.4743C124.788 48.3083 124.831 48.1208 124.874 47.9334C124.874 47.9334 124.874 47.9334 124.895 47.8397C124.917 47.7459 124.938 47.6522 124.938 47.6522L127.345 48.303L119.026 21.1398L116.62 20.489C117.891 20.0901 117.869 20.1838 117.755 20.2561Z" fill="#291B07"/>
<path d="M117.755 20.2561C117.712 20.4435 117.575 20.6096 117.417 20.8693C117.396 20.963 117.281 21.0353 117.259 21.129C117.238 21.2227 117.101 21.3888 117.08 21.4825C117.058 21.5762 116.944 21.6485 116.922 21.7422C116.901 21.836 116.764 22.002 116.743 22.0957C116.721 22.1894 116.606 22.2617 116.585 22.3554C116.563 22.4492 116.448 22.5214 116.405 22.7089C116.291 22.7812 116.248 22.9686 116.133 23.0409C116.018 23.1132 115.996 23.2069 115.881 23.2792C115.745 23.4453 115.63 23.5175 115.587 23.705C115.566 23.7987 115.451 23.871 115.429 23.9647C115.271 24.2245 115.042 24.3691 114.79 24.6074C114.79 24.6074 114.79 24.6074 114.769 24.7011C114.517 24.9394 114.381 25.1054 114.151 25.25C114.036 25.3223 114.036 25.3223 113.921 25.3946C113.67 25.6329 113.326 25.8498 113.074 26.0881L112.959 26.1604C112.73 26.305 112.615 26.3773 112.385 26.5219C112.27 26.5942 112.27 26.5942 112.155 26.6665C112.04 26.7388 111.81 26.8834 111.696 26.9557C111.581 27.028 111.581 27.028 111.466 27.1003C111.121 27.3172 110.776 27.5341 110.36 27.6358L110.245 27.7081C109.807 27.9036 109.484 28.0268 109.046 28.2222C108.514 28.3963 107.983 28.5703 107.451 28.7444C107.128 28.8675 106.92 28.9184 106.597 29.0416C106.503 29.0202 106.388 29.0925 106.388 29.0925C106.18 29.1433 105.95 29.2879 105.649 29.3174C105.555 29.296 105.534 29.3897 105.44 29.3683C105.117 29.4914 104.887 29.636 104.564 29.7592C104.471 29.7378 104.449 29.8315 104.356 29.8101C104.126 29.9547 103.918 30.0055 103.688 30.1501L103.573 30.2224C103.573 30.2224 103.552 30.3161 103.458 30.2947C103.228 30.4393 103.02 30.4902 102.884 30.6562L102.769 30.7285L102.654 30.8008C102.539 30.8731 102.424 30.9454 102.309 31.0177C102.288 31.1114 102.194 31.09 102.173 31.1837C102.058 31.256 102.036 31.3497 101.943 31.3283C101.922 31.422 101.828 31.4006 101.807 31.4943L101.692 31.5666C101.692 31.5666 101.692 31.5666 101.67 31.6603C101.555 31.7326 101.534 31.8264 101.397 31.9924C101.283 32.0647 101.24 32.2521 101.125 32.3244C101.125 32.3244 101.125 32.3244 101.103 32.4181C101.082 32.5119 100.988 32.4904 100.967 32.5842C100.945 32.6779 100.83 32.7502 100.83 32.7502L100.809 32.8439C100.787 32.9376 100.673 33.0099 100.651 33.1036C100.63 33.1974 100.63 33.1974 100.515 33.2696C100.515 33.2696 100.515 33.2696 100.493 33.3634C100.357 33.5294 100.314 33.7168 100.156 33.9766C100.156 33.9766 100.156 33.9766 100.134 34.0703C99.9765 34.33 99.7971 34.6835 99.7326 34.9646C99.5532 35.3181 99.3953 35.5778 99.3093 35.9527C99.2663 36.1402 99.13 36.3062 99.1085 36.3999C99.087 36.4936 99.0655 36.5874 98.9506 36.6596C98.7067 37.2943 98.3479 38.0012 98.104 38.6358C98.0825 38.7295 98.061 38.8232 97.9461 38.8955C97.6808 39.6239 97.322 40.3308 97.0566 41.0591C97.0351 41.1529 97.0136 41.2466 96.9921 41.3403C96.9706 41.434 96.9491 41.5278 96.9276 41.6215C96.6622 42.3498 96.3753 43.1719 96.11 43.9002C96.0885 43.9939 96.0885 43.9939 96.067 44.0877C95.8016 44.816 95.5362 45.5443 95.3642 46.2941C95.3427 46.3878 95.3212 46.4815 95.2997 46.5753C95.2782 46.669 95.2567 46.7627 95.2567 46.7627C95.0128 47.3973 94.8623 48.0534 94.6185 48.688C94.468 49.344 94.2456 49.8849 94.0951 50.541C93.9661 51.1033 93.7437 51.6442 93.6362 52.1128L93.6147 52.2065C93.4857 52.7689 93.2849 53.216 93.1559 53.7784C93.1344 53.8721 93.1344 53.8721 93.1129 53.9658C93.0484 54.247 92.869 54.6004 92.8045 54.8816C92.783 54.9753 92.783 54.9753 92.7615 55.069C92.697 55.3502 92.5391 55.6099 92.4746 55.8911C92.4531 55.9848 92.4316 56.0785 92.4316 56.0785C92.2522 56.432 92.1662 56.8069 91.9654 57.2541C91.9439 57.3478 91.9224 57.4415 91.8075 57.5138C91.6066 57.961 91.4057 58.4081 91.1114 58.8339C91.0684 59.0213 90.9535 59.0936 90.8171 59.2597C90.7956 59.3534 90.6807 59.4257 90.6592 59.5194C90.6377 59.6131 90.6377 59.6131 90.5229 59.6854C90.5014 59.7791 90.3865 59.8514 90.365 59.9452C90.3435 60.0389 90.3435 60.0389 90.2286 60.1112L90.2071 60.2049C90.0707 60.3709 89.9128 60.6306 89.7764 60.7967C89.7549 60.8904 89.7549 60.8904 89.64 60.9627C89.4821 61.2224 89.3457 61.3884 89.0944 61.6268C89.073 61.7205 88.9796 61.6991 88.9581 61.7928C88.8217 61.9588 88.6853 62.1248 88.5489 62.2908C88.5274 62.3845 88.4125 62.4568 88.4125 62.4568C88.2761 62.6229 88.1397 62.7889 87.9099 62.9335C87.8884 63.0272 87.795 63.0058 87.7735 63.0995C87.5437 63.2441 87.3859 63.5038 87.1561 63.6484C87.1346 63.7421 87.0412 63.7207 87.0197 63.8144C86.7899 63.959 86.6535 64.125 86.4237 64.2696C86.3088 64.3419 86.2873 64.4357 86.1939 64.4142C86.079 64.4865 86.0575 64.5803 85.9641 64.5588C85.8493 64.6311 85.7344 64.7034 85.6195 64.7757C85.5046 64.848 85.4112 64.8266 85.3897 64.9203C85.2748 64.9926 85.1599 65.0649 85.0665 65.0435C84.8367 65.1881 84.7218 65.2604 84.492 65.405C84.3772 65.4773 84.2838 65.4558 84.2623 65.5496C83.9391 65.6727 83.7093 65.8173 83.3861 65.9405C83.0629 66.0637 82.7398 66.1868 82.3232 66.2886C82.3232 66.2886 82.2298 66.2672 82.2083 66.3609C81.9066 66.3903 81.6768 66.5349 81.3751 66.5644C81.2817 66.543 81.1669 66.6153 81.0735 66.5938C80.8652 66.6447 80.7718 66.6233 80.5635 66.6742C80.2618 66.7036 80.0535 66.7545 79.7518 66.7839C79.6585 66.7625 79.4502 66.8134 79.3568 66.792C78.8683 66.7786 78.3583 66.8589 77.9633 66.8669C77.9633 66.8669 77.9633 66.8669 77.8699 66.8455C77.3814 66.8321 76.8929 66.8187 76.4045 66.8053C76.3111 66.7839 76.1028 66.8348 76.0094 66.8133C75.5209 66.7999 75.0324 66.7865 74.544 66.7731C74.0555 66.7597 73.4736 66.7249 72.9852 66.7115C72.4033 66.6767 71.8214 66.6419 71.3115 66.7222C71.3115 66.7222 71.3115 66.7222 71.2181 66.7008C70.6362 66.666 70.0329 66.7249 69.4295 66.7838C69.4295 66.7838 69.4295 66.7838 69.3361 66.7623C68.8261 66.8427 68.3377 66.8293 67.8277 66.9096C67.8277 66.9096 67.8277 66.9096 67.7343 66.8882L67.6409 66.8667C67.3392 66.8962 67.1309 66.9471 66.8293 66.9765L66.7359 66.9551C66.5276 67.006 66.2259 67.0354 66.0176 67.0863L65.9242 67.0649C65.7159 67.1157 65.3928 67.2389 65.1845 67.2898L65.0696 67.3621C64.8613 67.4129 64.653 67.4638 64.4232 67.6084C64.4232 67.6084 64.3298 67.587 64.3083 67.6807C64.1 67.7316 63.8703 67.8762 63.6405 68.0208L63.5256 68.0931C63.3173 68.1439 63.0875 68.2885 62.9511 68.4546C62.9511 68.4546 62.9511 68.4546 62.8577 68.4331C62.6494 68.484 62.513 68.65 62.3981 68.7223L62.2833 68.7946C62.1684 68.8669 62.0535 68.9392 61.9171 69.1052C61.9171 69.1052 61.9171 69.1052 61.8022 69.1775C61.5724 69.3221 61.436 69.4881 61.2062 69.6327C61.2062 69.6327 61.2062 69.6327 61.0913 69.705C60.9549 69.871 60.7252 70.0156 60.5888 70.1817C60.5888 70.1817 60.5673 70.2754 60.4739 70.254C60.3375 70.42 60.2226 70.4923 60.0862 70.6583C60.0862 70.6583 60.0647 70.752 59.9713 70.7306C59.9713 70.7306 59.9498 70.8243 59.8564 70.8029C59.7415 70.8752 59.6051 71.0412 59.5621 71.2286L59.4472 71.3009C59.4472 71.3009 59.4472 71.3009 59.4257 71.3947C59.2894 71.5607 59.1315 71.8204 58.9951 71.9864C58.8587 72.1524 58.7008 72.4122 58.5644 72.5782C58.5644 72.5782 58.5644 72.5782 58.5429 72.6719C58.5429 72.6719 58.5214 72.7657 58.428 72.7442C58.2916 72.9102 58.2486 73.0977 58.1122 73.2637L58.0907 73.3574L58.0692 73.4511C57.9113 73.7109 57.7535 73.9706 57.5956 74.2304C57.4592 74.3964 57.3947 74.6775 57.2583 74.8436C56.268 76.5894 55.371 78.3567 54.4526 80.2177C54.1153 80.8309 53.7565 81.5379 53.4192 82.151C53.3977 82.2448 53.3977 82.2448 53.3763 82.3385C53.039 82.9517 52.7017 83.5649 52.3644 84.1781C52.3429 84.2718 52.3214 84.3655 52.228 84.3441C51.8907 84.9573 51.5535 85.5705 51.2162 86.1837C51.1947 86.2774 51.1732 86.3711 51.0583 86.4434C50.721 87.0566 50.3838 87.6698 50.0465 88.283C50.025 88.3767 50.025 88.3767 49.9101 88.449C49.5943 88.9685 49.2785 89.488 48.9412 90.1012C48.9198 90.1949 48.8049 90.2672 48.7834 90.3609C48.4676 90.8804 48.1518 91.3999 47.836 91.9194C47.8145 92.0131 47.6996 92.0854 47.6781 92.1791C47.3839 92.6049 47.2045 92.9583 46.9102 93.3841C46.9102 93.3841 46.8887 93.4778 46.7953 93.4564C46.5225 93.7884 46.3431 94.1419 46.0703 94.4739C45.9555 94.5462 45.9125 94.7336 45.7976 94.8059C45.6397 95.0657 45.5033 95.2317 45.252 95.47C45.1371 95.5423 45.0941 95.7297 44.9792 95.802C44.7064 96.1341 44.5485 96.3938 44.2758 96.7259C44.2758 96.7259 44.2758 96.7258 44.2543 96.8196C43.9815 97.1516 43.7302 97.3899 43.5508 97.7434C43.4359 97.8157 43.4144 97.9094 43.2995 97.9817C43.1631 98.1477 42.9119 98.386 42.7755 98.552C42.6606 98.6243 42.5242 98.7904 42.4093 98.8627C42.2729 99.0287 42.1365 99.1947 42.0001 99.3607C41.8852 99.433 41.7488 99.599 41.6339 99.6713C41.4975 99.8373 41.3612 100.003 41.2463 100.076C41.1314 100.148 40.995 100.314 40.8801 100.386C40.7437 100.552 40.6288 100.625 40.4924 100.791C40.3775 100.863 40.2411 101.029 40.1262 101.101C39.9898 101.267 39.8749 101.34 39.6452 101.484C39.5303 101.556 39.3939 101.722 39.279 101.795C39.1426 101.961 38.9128 102.105 38.7764 102.271C38.6615 102.344 38.5251 102.51 38.4102 102.582C38.1805 102.727 38.0441 102.893 37.8143 103.037C37.6994 103.109 37.5845 103.182 37.4696 103.254C37.1034 103.565 36.6654 103.76 36.2992 104.071L36.1843 104.143C35.8396 104.36 35.4949 104.577 35.1503 104.794C35.0354 104.866 34.9205 104.938 34.8056 105.011C34.5758 105.155 34.346 105.3 34.0228 105.423C33.9079 105.495 33.793 105.568 33.6782 105.64C33.3335 105.857 32.8954 106.052 32.5722 106.175C32.1342 106.371 31.7176 106.473 31.1861 106.647C31.0712 106.719 30.8629 106.77 30.7695 106.748C30.4464 106.872 30.1447 106.901 29.8215 107.024C29.7066 107.097 29.5198 107.054 29.4049 107.126C29.1032 107.155 28.7801 107.279 28.4784 107.308C28.3635 107.38 28.1767 107.337 28.0618 107.41C27.6452 107.512 27.2502 107.52 26.7402 107.6C26.6468 107.578 26.5319 107.651 26.5319 107.651C26.2302 107.68 25.9285 107.71 25.6269 107.739C25.3252 107.769 24.9301 107.777 24.6284 107.806C24.4201 107.857 24.2334 107.814 23.9317 107.843C23.5366 107.852 23.2349 107.881 22.8613 107.795C22.6746 107.752 22.4663 107.803 22.2795 107.76C21.791 107.747 21.3025 107.734 20.929 107.648C20.8356 107.627 20.7422 107.605 20.6488 107.584C20.0669 107.549 19.4132 107.399 18.8313 107.364C18.4577 107.278 18.0626 107.286 17.6891 107.201C17.5957 107.179 17.5957 107.179 17.5023 107.158C17.0353 107.051 16.5683 106.944 16.0799 106.93C15.8931 106.887 15.6129 106.823 15.4261 106.78C15.1459 106.716 14.8657 106.652 14.5856 106.587C14.3988 106.545 14.1186 106.48 13.9318 106.438C13.6516 106.373 13.4648 106.33 13.1846 106.266C12.5309 106.116 11.8771 105.966 11.3383 105.744C11.2449 105.723 11.1515 105.701 11.0581 105.68C10.4977 105.551 10.0522 105.35 9.49188 105.222C9.2117 105.157 8.83812 105.072 8.57944 104.914L15.8352 132.425C16.022 132.468 16.3022 132.532 16.4675 132.669C16.5609 132.69 16.6543 132.712 16.7477 132.733C17.308 132.862 17.7535 133.062 18.3139 133.191C18.4073 133.212 18.5007 133.234 18.5941 133.255C19.2478 133.405 19.7867 133.627 20.4405 133.777C20.5338 133.799 20.5338 133.799 20.6272 133.82C20.814 133.863 21.0008 133.906 21.1876 133.949C21.3744 133.992 21.6546 134.056 21.8414 134.099C22.1215 134.163 22.4017 134.227 22.6819 134.292C22.8687 134.334 23.1489 134.399 23.3357 134.442C23.4291 134.463 23.4291 134.463 23.5225 134.484C23.896 134.57 24.363 134.677 24.7581 134.669C24.8515 134.691 24.8515 134.691 24.9449 134.712C25.3184 134.798 25.5986 134.862 25.9937 134.854C26.0871 134.875 26.0871 134.875 26.1805 134.897C26.8558 134.953 27.4161 135.082 27.998 135.116C28.0914 135.138 28.1848 135.159 28.2782 135.181C28.7666 135.194 29.2336 135.301 29.7221 135.315C29.8155 135.336 29.8155 135.336 29.9089 135.357C30.0023 135.379 30.2105 135.328 30.3039 135.349C30.699 135.341 30.9792 135.406 31.3743 135.398C31.4677 135.419 31.5611 135.44 31.6759 135.368C31.7693 135.39 31.8842 135.317 32.071 135.36C32.3727 135.331 32.7678 135.323 33.0695 135.293C33.1629 135.315 33.3711 135.264 33.4645 135.285C33.5794 135.213 33.7662 135.256 33.9745 135.205C34.0679 135.226 34.1828 135.154 34.1828 135.154C34.5779 135.146 34.901 135.023 35.2961 135.015C35.3895 135.036 35.411 134.942 35.5044 134.964C35.6193 134.892 35.8061 134.934 35.921 134.862C36.2227 134.833 36.5458 134.71 36.8475 134.68C36.9624 134.608 37.1492 134.651 37.2641 134.578C37.379 134.506 37.4724 134.527 37.5658 134.549C37.7741 134.498 37.9823 134.447 38.1906 134.396C38.3989 134.345 38.6072 134.294 38.7221 134.222C39.1602 134.027 39.6701 133.946 40.1082 133.751C40.5463 133.555 40.8695 133.432 41.2141 133.215C41.329 133.143 41.4439 133.071 41.5588 132.999C41.7886 132.854 42.1118 132.731 42.3416 132.586C42.435 132.608 42.4565 132.514 42.5499 132.535C42.6432 132.557 42.6647 132.463 42.7581 132.484C43.1028 132.268 43.4475 132.051 43.7922 131.834L43.9071 131.761C44.2732 131.451 44.7113 131.255 45.0775 130.945L45.1924 130.872C45.3073 130.8 45.3288 130.706 45.4222 130.728C45.652 130.583 45.7883 130.417 46.0181 130.273C46.133 130.2 46.2694 130.034 46.3843 129.962C46.5207 129.796 46.7505 129.651 46.8869 129.485C47.0018 129.413 47.0233 129.319 47.1167 129.341C47.1382 129.247 47.2316 129.269 47.253 129.175C47.3894 129.009 47.5043 128.936 47.7341 128.792C47.849 128.72 47.9854 128.554 48.1003 128.481C48.2367 128.315 48.3516 128.243 48.488 128.077C48.6029 128.005 48.6244 127.911 48.7393 127.839L48.8541 127.766C48.9905 127.6 49.1269 127.434 49.2418 127.362C49.3567 127.29 49.4931 127.124 49.608 127.051C49.7444 126.885 49.8808 126.719 50.0172 126.553C50.1321 126.481 50.1536 126.387 50.2685 126.315C50.2685 126.315 50.29 126.221 50.3833 126.243C50.5197 126.077 50.771 125.838 50.9074 125.672C51.0223 125.6 51.0438 125.506 51.1587 125.434C51.4315 125.102 51.6828 124.864 51.8621 124.51C51.8621 124.51 51.8621 124.51 51.8836 124.417C52.1564 124.084 52.4077 123.846 52.5871 123.493C52.702 123.42 52.745 123.233 52.8599 123.161C53.0178 122.901 53.1542 122.735 53.4054 122.497C53.4269 122.403 53.5203 122.424 53.5418 122.331C53.5633 122.237 53.6567 122.258 53.6782 122.165C53.951 121.833 54.1304 121.479 54.4032 121.147C54.4032 121.147 54.4247 121.053 54.5181 121.075C54.8124 120.649 55.0851 120.317 55.286 119.87C55.286 119.87 55.3075 119.776 55.4009 119.797C55.4224 119.704 55.4224 119.704 55.5373 119.631C55.8531 119.112 56.1689 118.593 56.4846 118.073C56.5061 117.979 56.621 117.907 56.6425 117.813C56.9583 117.294 57.2741 116.774 57.6114 116.161L57.6329 116.067L57.6544 115.974C57.9916 115.36 58.3289 114.747 58.6662 114.134C58.6877 114.04 58.7092 113.947 58.8241 113.874C59.1614 113.261 59.4986 112.648 59.8359 112.035C59.8574 111.941 59.8789 111.847 59.9723 111.869C60.3096 111.256 60.6469 110.642 61.0056 109.935C61.0271 109.842 61.0271 109.842 61.0486 109.748C61.4074 109.041 61.7447 108.428 62.082 107.815C63.0004 105.954 63.9907 104.208 64.8877 102.441C65.0241 102.274 65.0886 101.993 65.225 101.827C65.3828 101.568 65.5407 101.308 65.6986 101.048C65.7201 100.954 65.835 100.882 65.835 100.882C65.9714 100.716 66.0144 100.529 66.1508 100.363C66.1723 100.269 66.2872 100.197 66.2872 100.197C66.4236 100.031 66.5815 99.7708 66.7179 99.6048C66.8542 99.4388 67.0121 99.1791 67.1485 99.013C67.17 98.9193 67.2634 98.9407 67.2849 98.847C67.4213 98.681 67.5362 98.6087 67.5792 98.4213C67.6007 98.3275 67.6941 98.349 67.7156 98.2552C67.852 98.0892 67.9669 98.0169 68.1033 97.8509C68.1248 97.7572 68.2182 97.7786 68.2396 97.6849C68.376 97.5189 68.6058 97.3743 68.7422 97.2083L68.8571 97.136C69.0869 96.9914 69.2233 96.8254 69.4531 96.6808L69.568 96.6085C69.6829 96.5362 69.8192 96.3701 69.9341 96.2978L70.049 96.2256C70.1639 96.1533 70.3937 96.0087 70.5086 95.9364C70.5086 95.9364 70.5086 95.9364 70.6235 95.8641C70.8533 95.7195 71.0616 95.6686 71.198 95.5026L71.3128 95.4303C71.5426 95.2857 71.7509 95.2348 71.9807 95.0902C71.9807 95.0902 72.0741 95.1116 72.0956 95.0179C72.3039 94.967 72.5337 94.8225 72.742 94.7716L72.8568 94.6993C73.0651 94.6484 73.3883 94.5252 73.5966 94.4744C73.5966 94.4744 73.69 94.4958 73.7115 94.4021C73.9198 94.3512 74.2215 94.3217 74.4297 94.2709L74.5231 94.2923C74.8248 94.2628 75.0331 94.212 75.3348 94.1825C75.3348 94.1825 75.4282 94.2039 75.4497 94.1102C75.9597 94.0299 76.4696 93.9496 76.9581 93.963L77.0515 93.9844C77.6548 93.9255 78.2367 93.9603 78.8401 93.9014L78.9335 93.9228C79.5153 93.9577 80.0253 93.8773 80.6072 93.9122C81.0956 93.9256 81.6775 93.9604 82.166 93.9738C82.6544 93.9872 83.1429 94.0006 83.6314 94.014C83.7248 94.0354 83.933 93.9845 84.0264 94.0059C84.5149 94.0193 85.0034 94.0327 85.4918 94.0461C85.4918 94.0461 85.4918 94.0461 85.5852 94.0676C86.0737 94.0809 86.5837 94.0006 86.9788 93.9926C87.0721 94.014 87.0722 94.014 87.187 93.9417C87.2804 93.9632 87.3019 93.8694 87.3953 93.8909C87.697 93.8614 87.9987 93.8319 88.207 93.7811C88.3004 93.8025 88.4153 93.7302 88.5087 93.7516C88.602 93.7731 88.6236 93.6793 88.7169 93.7008C88.8103 93.7222 88.9252 93.6499 89.0186 93.6713C89.3203 93.6419 89.622 93.6124 89.8518 93.4678C89.8518 93.4678 89.9452 93.4892 89.9667 93.3955C90.2898 93.2723 90.5915 93.2429 90.9147 93.1197C91.2379 92.9966 91.5611 92.8734 91.7908 92.7288C91.9057 92.6565 91.9991 92.6779 92.0206 92.5842C92.2289 92.5333 92.4587 92.3887 92.5951 92.2227L92.71 92.1504L92.8249 92.0781C92.9398 92.0058 93.0332 92.0272 93.0547 91.9335C93.1696 91.8612 93.2844 91.7889 93.3993 91.7166C93.5142 91.6443 93.5357 91.5506 93.6291 91.572L93.744 91.4997L93.8589 91.4274C94.0887 91.2828 94.2251 91.1168 94.4549 90.9722L94.5698 90.8999C94.5698 90.8999 94.5698 90.8999 94.5913 90.8062C94.821 90.6616 94.9789 90.4019 95.2087 90.2573C95.2087 90.2573 95.2302 90.1636 95.3236 90.185C95.46 90.019 95.5964 89.853 95.8262 89.7084C95.8262 89.7084 95.8477 89.6146 95.9411 89.6361C95.9411 89.6361 95.9626 89.5423 96.056 89.5638C96.1924 89.3977 96.3287 89.2317 96.4651 89.0657C96.4651 89.0657 96.4866 88.972 96.58 88.9934C96.7379 88.7337 96.8743 88.5677 97.1256 88.3293C97.1256 88.3293 97.1256 88.3293 97.1471 88.2356L97.1686 88.1419C97.3265 87.8822 97.4629 87.7162 97.5993 87.5501C97.5993 87.5501 97.5993 87.5501 97.6208 87.4564C97.6423 87.3627 97.6423 87.3627 97.7572 87.2904C97.7787 87.1967 97.8935 87.1244 97.915 87.0306C97.9365 86.9369 97.9365 86.9369 98.0514 86.8646C98.0729 86.7709 98.0729 86.7709 98.1878 86.6986C98.1878 86.6986 98.1878 86.6986 98.2093 86.6049C98.3457 86.4389 98.3887 86.2514 98.5036 86.1791C98.5251 86.0854 98.6615 85.9194 98.683 85.8257C98.8624 85.4722 99.0203 85.2125 99.1063 84.8376L99.1278 84.7439L99.1493 84.6502C99.3287 84.2967 99.508 83.9432 99.6155 83.4746L99.637 83.3809L99.6585 83.2872C99.723 83.006 99.8809 82.7463 99.9454 82.4651C99.9669 82.3714 99.9669 82.3714 99.9884 82.2777C100.053 81.9965 100.232 81.6431 100.297 81.3619C100.297 81.3619 100.297 81.3619 100.318 81.2682L100.34 81.1745C100.469 80.6121 100.67 80.165 100.799 79.6026L100.82 79.5089C100.949 78.9466 101.15 78.4994 101.279 77.9371C101.43 77.281 101.652 76.7401 101.802 76.0841C101.953 75.4281 102.197 74.7934 102.441 74.1588C102.484 73.9714 102.527 73.7839 102.548 73.6902C102.814 72.9619 103.079 72.2335 103.251 71.4838C103.272 71.39 103.272 71.39 103.294 71.2963C103.559 70.568 103.846 69.7459 104.112 69.0176C104.155 68.8301 104.291 68.6641 104.312 68.5704C104.578 67.8421 104.843 67.1137 105.202 66.4068C105.223 66.3131 105.245 66.2194 105.36 66.1471C105.604 65.5124 105.962 64.8055 106.206 64.1709C106.364 63.9112 106.429 63.63 106.587 63.3703C106.766 63.0168 106.924 62.7571 107.01 62.3822C107.168 62.1224 107.347 61.769 107.412 61.4878C107.412 61.4878 107.412 61.4878 107.433 61.3941C107.57 61.2281 107.613 61.0406 107.77 60.7809C107.792 60.6872 107.907 60.6149 107.907 60.6149C107.928 60.5212 108.043 60.4489 108.065 60.3552C108.086 60.2614 108.201 60.1891 108.223 60.0954C108.244 60.0017 108.244 60.0017 108.359 59.9294C108.495 59.7634 108.517 59.6697 108.653 59.5036C108.768 59.4313 108.905 59.2653 108.926 59.1716L109.041 59.0993C109.156 59.027 109.292 58.861 109.407 58.7887C109.544 58.6227 109.773 58.4781 109.888 58.4058L110.003 58.3335L110.118 58.2612C110.348 58.1166 110.484 57.9506 110.692 57.8997C110.807 57.8274 110.807 57.8274 110.922 57.7551C111.152 57.6105 111.36 57.5596 111.59 57.415C111.684 57.4365 111.705 57.3428 111.798 57.3642C112.122 57.241 112.351 57.0964 112.675 56.9732C112.768 56.9947 112.789 56.9009 112.883 56.9224C113.091 56.8715 113.321 56.7269 113.623 56.6974C113.716 56.7189 113.831 56.6466 113.831 56.6466C114.154 56.5234 114.362 56.4725 114.686 56.3494C115.217 56.1753 115.842 56.0227 116.28 55.8272C116.718 55.6318 117.135 55.53 117.479 55.3131L117.594 55.2408C117.939 55.0239 118.355 54.9222 118.7 54.7053L118.815 54.633L118.93 54.5607C119.045 54.4884 119.275 54.3438 119.389 54.2715C119.504 54.1992 119.504 54.1992 119.619 54.1269C119.849 53.9823 119.964 53.91 120.194 53.7654L120.309 53.6931C120.653 53.4762 120.905 53.2379 121.156 52.9996L121.271 52.9273C121.271 52.9273 121.292 52.8336 121.386 52.855C121.615 52.7104 121.867 52.4721 122.003 52.3061C122.003 52.3061 122.003 52.3061 122.025 52.2124C122.254 52.0678 122.412 51.808 122.663 51.5697C122.663 51.5697 122.663 51.5697 122.685 51.476C122.706 51.3823 122.8 51.4037 122.821 51.31C122.958 51.144 123.073 51.0717 123.116 50.8842L123.137 50.7905C123.159 50.6968 123.274 50.6245 123.274 50.6245C123.388 50.5522 123.431 50.3647 123.546 50.2925C123.546 50.2925 123.568 50.1987 123.661 50.2202C123.683 50.1264 123.798 50.0541 123.798 50.0541C123.819 49.9604 123.934 49.8881 123.956 49.7944L123.977 49.7007C123.999 49.607 124.113 49.5347 124.135 49.4409C124.156 49.3472 124.271 49.2749 124.293 49.1812L124.314 49.0875C124.336 48.9938 124.451 48.9215 124.472 48.8277C124.494 48.734 124.609 48.6617 124.63 48.568C124.63 48.568 124.63 48.568 124.652 48.4743C124.788 48.3083 124.831 48.1208 124.874 47.9334C124.874 47.9334 124.874 47.9334 124.895 47.8397C124.917 47.7459 124.938 47.6522 124.938 47.6522L127.345 48.303L119.026 21.1398L116.62 20.489C117.891 20.0901 117.869 20.1838 117.755 20.2561Z" fill="url(#paint0_linear_31_550)"/>
<path d="M14.8523 134.567L15.9286 132.446C23.5514 134.787 32.4238 136.822 40.2016 133.772C51.2683 128.813 57.1021 117.524 62.2398 107.555C63.1583 105.694 64.1486 103.948 65.0456 102.181C68.3961 94.8598 73.8116 93.537 80.8369 93.7674C81.3254 93.7808 81.9073 93.8157 82.3957 93.8291C85.5133 93.9523 88.5375 94.0541 91.3098 93.1116C95.4896 91.6041 97.8868 88.0106 98.9417 85.9836C99.1426 85.5364 99.3434 85.0892 99.6377 84.6634C100.642 82.4276 101.295 80.0122 102.019 77.7121C102.169 77.056 102.392 76.5151 102.542 75.8591C103.811 71.6122 105.404 67.2422 107.326 63.1452C107.506 62.7918 107.664 62.532 107.75 62.1572C108.352 60.8156 109.048 59.4955 110.262 58.4914C111.748 57.1552 113.666 56.5099 115.562 55.9583C116.093 55.7843 116.718 55.6316 117.156 55.4362C121.128 53.9796 124.466 50.9966 126.052 47.5129C126.073 47.4192 126.095 47.3255 126.21 47.2532L128.616 47.9039C126.629 52.282 122.673 55.8138 118.055 57.5168C117.409 57.7631 116.877 57.9372 116.252 58.0898C114.658 58.6119 113.085 59.0404 112.08 59.9936C111.211 60.7809 110.695 61.7475 110.228 62.923C110.049 63.2765 109.891 63.5362 109.805 63.9111C107.976 68.0295 106.354 72.0969 105.179 76.3652C105.028 77.0213 104.806 77.5622 104.655 78.2182C104.003 80.6335 103.257 83.0274 102.21 85.4507C101.987 85.9916 101.786 86.4388 101.471 86.9583C99.2677 90.991 96.0225 93.9953 92.2807 95.3073C88.9555 96.5176 85.5577 96.3301 82.2319 96.2578C81.7434 96.2444 81.1615 96.2096 80.6731 96.1962C73.2526 95.9738 69.9133 97.6741 67.3878 103.113C66.3975 104.858 65.5005 106.626 64.5821 108.487C59.265 118.809 53.1154 130.618 41.194 135.874C32.3748 139.178 22.9205 137.108 14.8523 134.567Z" fill="url(#paint1_linear_31_550)"/>
<path d="M14.8523 134.567L6.53356 107.404L7.60989 105.283L15.8352 132.425L14.8523 134.567Z" fill="url(#paint2_linear_31_550)"/>
<path d="M126.21 47.2534L117.704 20.0473L120.175 20.4169L128.523 47.8827L126.21 47.2534Z" fill="#291B07"/>
</g>
<defs>
<linearGradient id="paint0_linear_31_550" x1="10.7714" y1="108.573" x2="125.193" y2="55.9116" gradientUnits="userSpaceOnUse">
<stop offset="0.00558659" stop-color="#DC9246"/>
<stop offset="0.148" stop-color="#9E4D1D"/>
<stop offset="0.1639" stop-color="#99491B"/>
<stop offset="0.2594" stop-color="#7E3512"/>
<stop offset="0.3156" stop-color="#742D0E"/>
<stop offset="0.3427" stop-color="#7D3814"/>
<stop offset="0.3898" stop-color="#965426"/>
<stop offset="0.4509" stop-color="#BF8242"/>
<stop offset="0.486" stop-color="#D9A054"/>
<stop offset="0.5305" stop-color="#D79D51"/>
<stop offset="0.5687" stop-color="#D2924A"/>
<stop offset="0.6045" stop-color="#C9803C"/>
<stop offset="0.6388" stop-color="#BC682A"/>
<stop offset="0.6508" stop-color="#B75D22"/>
<stop offset="0.7269" stop-color="#8F4519"/>
<stop offset="0.8003" stop-color="#6F3212"/>
<stop offset="0.8408" stop-color="#632B0F"/>
</linearGradient>
<linearGradient id="paint1_linear_31_550" x1="-85.4619" y1="74.538" x2="163.819" y2="102.018" gradientUnits="userSpaceOnUse">
<stop stop-color="#B06143"/>
<stop offset="0.2095" stop-color="#9E4D1D"/>
<stop offset="0.2227" stop-color="#99491B"/>
<stop offset="0.3023" stop-color="#7E3512"/>
<stop offset="0.3492" stop-color="#742D0E"/>
<stop offset="0.486" stop-color="#B78A47"/>
<stop offset="0.5252" stop-color="#B77E3D"/>
<stop offset="0.5951" stop-color="#B76024"/>
<stop offset="0.6006" stop-color="#B75D22"/>
<stop offset="0.6467" stop-color="#B45B21"/>
<stop offset="0.6751" stop-color="#AC561F"/>
<stop offset="0.6988" stop-color="#9D4E1C"/>
<stop offset="0.7197" stop-color="#894218"/>
<stop offset="0.7388" stop-color="#6F3212"/>
<stop offset="0.7458" stop-color="#632B0F"/>
</linearGradient>
<linearGradient id="paint2_linear_31_550" x1="-24.7822" y1="53.8272" x2="108.157" y2="296.01" gradientUnits="userSpaceOnUse">
<stop stop-color="#B06143"/>
<stop offset="0.2095" stop-color="#9E4D1D"/>
<stop offset="0.2227" stop-color="#99491B"/>
<stop offset="0.3023" stop-color="#7E3512"/>
<stop offset="0.3492" stop-color="#742D0E"/>
<stop offset="0.486" stop-color="#B78A47"/>
<stop offset="0.5252" stop-color="#B77E3D"/>
<stop offset="0.5951" stop-color="#B76024"/>
<stop offset="0.6006" stop-color="#B75D22"/>
<stop offset="0.6467" stop-color="#B45B21"/>
<stop offset="0.6751" stop-color="#AC561F"/>
<stop offset="0.6988" stop-color="#9D4E1C"/>
<stop offset="0.7197" stop-color="#894218"/>
<stop offset="0.7388" stop-color="#6F3212"/>
<stop offset="0.7458" stop-color="#632B0F"/>
</linearGradient>
<clipPath id="clip0_31_550">
<rect width="135.097" height="105.593" fill="white" transform="translate(0.965454 131.678) rotate(-77.0805)"/>
</clipPath>
</defs>
</svg>
