<svg width="17" height="12" viewBox="0 0 17 12" fill="none" xmlns="http://www.w3.org/2000/svg">
<path d="M13.9559 1.5882C13.9325 1.55142 13.9058 1.52257 13.8708 1.49624C13.5934 1.28779 12.1862 0.292044 10.3851 0.0987383C10.3815 0.0983776 10.3678 0.0976562 10.3646 0.0976562C10.3292 0.0976562 10.2986 0.118213 10.2838 0.148146L10.1868 0.342174H10.1864C10.1803 0.354075 10.1771 0.367779 10.1771 0.382205C10.1771 0.421516 10.2023 0.455056 10.2376 0.467317C10.2398 0.468039 10.255 0.471285 10.2604 0.472366C11.7992 0.84311 12.7355 1.51463 13.5599 2.25576C12.1004 1.51066 10.6589 0.812816 8.14698 0.812816C5.63509 0.812816 4.19395 1.51102 2.73406 2.25576C3.55849 1.51463 4.49473 0.84311 6.0336 0.472366C6.03901 0.470924 6.05416 0.468039 6.05632 0.467317C6.09167 0.455056 6.11691 0.421516 6.11691 0.382205C6.11691 0.367779 6.11367 0.354075 6.10753 0.342174H6.10717L6.01016 0.148146C5.99537 0.118213 5.96508 0.0976562 5.92938 0.0976562C5.92613 0.0976562 5.91207 0.0983776 5.90882 0.0987383C4.10776 0.292044 2.70052 1.28779 2.42318 1.49624C2.3882 1.52257 2.36187 1.55142 2.33807 1.5882C2.08273 1.98744 0.517172 4.6133 0.213148 9.38968C0.209903 9.44089 0.227574 9.49391 0.261835 9.53214C1.91792 11.3873 4.29457 11.6066 4.80164 11.6322C4.86187 11.6351 4.91957 11.6087 4.95563 11.5604L5.41798 10.9441C5.45405 10.8957 5.43457 10.8279 5.37795 10.8074C4.4024 10.4518 3.31614 9.83364 2.37305 8.74954C3.5419 9.63312 5.3051 10.5502 8.14698 10.5502C10.9889 10.5502 12.7521 9.63312 13.9206 8.74954C12.9771 9.83364 11.8912 10.4514 10.9157 10.8074C10.859 10.8279 10.8396 10.8957 10.8756 10.9441L11.338 11.5604C11.3744 11.6087 11.4317 11.6354 11.492 11.6322C11.9994 11.6062 14.3757 11.3873 16.0318 9.53214C16.066 9.49391 16.0837 9.44089 16.0805 9.38968C15.7768 4.6133 14.2112 1.98744 13.9559 1.5882Z" fill="white"/>
<path opacity="0.05" d="M10.4911 8.38624C11.3874 8.38624 12.114 7.57891 12.114 6.58301C12.114 5.58712 11.3874 4.77979 10.4911 4.77979C9.59482 4.77979 8.86823 5.58712 8.86823 6.58301C8.86823 7.57891 9.59482 8.38624 10.4911 8.38624Z" fill="black"/>
<path opacity="0.05" d="M10.4912 8.20577C11.2879 8.20577 11.9338 7.47917 11.9338 6.58286C11.9338 5.68656 11.2879 4.95996 10.4912 4.95996C9.69448 4.95996 9.04861 5.68656 9.04861 6.58286C9.04861 7.47917 9.69448 8.20577 10.4912 8.20577Z" fill="black"/>
<path d="M10.4912 8.0253C11.1883 8.0253 11.7534 7.37943 11.7534 6.58272C11.7534 5.786 11.1883 5.14014 10.4912 5.14014C9.79404 5.14014 9.22891 5.786 9.22891 6.58272C9.22891 7.37943 9.79404 8.0253 10.4912 8.0253Z" fill="#060212"/>
<path opacity="0.05" d="M5.8028 8.38624C6.69911 8.38624 7.42571 7.57891 7.42571 6.58301C7.42571 5.58712 6.69911 4.77979 5.8028 4.77979C4.9065 4.77979 4.1799 5.58712 4.1799 6.58301C4.1799 7.57891 4.9065 8.38624 5.8028 8.38624Z" fill="black"/>
<path opacity="0.05" d="M5.80275 8.20577C6.59946 8.20577 7.24533 7.47917 7.24533 6.58286C7.24533 5.68656 6.59946 4.95996 5.80275 4.95996C5.00603 4.95996 4.36017 5.68656 4.36017 6.58286C4.36017 7.47917 5.00603 8.20577 5.80275 8.20577Z" fill="black"/>
<path d="M5.80272 8.0253C6.49985 8.0253 7.06498 7.37943 7.06498 6.58272C7.06498 5.786 6.49985 5.14014 5.80272 5.14014C5.1056 5.14014 4.54047 5.786 4.54047 6.58272C4.54047 7.37943 5.1056 8.0253 5.80272 8.0253Z" fill="#070313"/>
</svg>
