<svg width="16" height="12" viewBox="0 0 16 12" fill="none" xmlns="http://www.w3.org/2000/svg">
<path d="M15.4034 1.46763C14.8631 1.70277 14.2902 1.8572 13.7036 1.92581C14.3219 1.56193 14.7847 0.989268 15.0057 0.314525C14.4254 0.654329 13.7892 0.89247 13.1261 1.02129C12.6807 0.552373 12.0903 0.241386 11.4467 0.136674C10.8031 0.0319629 10.1424 0.139394 9.5673 0.442267C8.99218 0.745139 8.53487 1.22648 8.26646 1.81147C7.99805 2.39645 7.93359 3.0523 8.08309 3.67705C6.90628 3.61902 5.75503 3.31811 4.70408 2.79388C3.65313 2.26965 2.72598 1.53381 1.98282 0.634135C1.71976 1.0787 1.58153 1.58407 1.58227 2.09849C1.58227 3.10816 2.10454 4.00014 2.89857 4.52238C2.42867 4.50783 1.96911 4.38297 1.5582 4.15821V4.19442C1.55835 4.86685 1.79483 5.51855 2.22757 6.03901C2.66031 6.55947 3.26266 6.91666 3.9325 7.05002C3.49629 7.16633 3.0389 7.18348 2.59497 7.10016C2.78383 7.67896 3.15192 8.18516 3.64772 8.54788C4.14351 8.9106 4.74218 9.11168 5.35991 9.12296C4.74597 9.59738 4.04302 9.94809 3.29125 10.155C2.53947 10.362 1.75362 10.4211 0.978607 10.329C2.33149 11.1851 3.90638 11.6395 5.51489 11.6381C10.9591 11.6381 13.9364 7.20043 13.9364 3.35187C13.9364 3.22653 13.9328 3.0998 13.9272 2.97586C14.5067 2.56375 15.0068 2.05325 15.4041 1.46833L15.4034 1.46763Z" fill="white"/>
</svg>
